<svg width="27" height="23" viewBox="0 0 27 23" fill="none" xmlns="http://www.w3.org/2000/svg">
<path d="M13.4436 2.45947C7.25617 2.45947 2.2406 6.49798 2.2406 11.48C2.2406 16.4621 7.25617 20.5006 13.4436 20.5006C19.631 20.5006 24.6466 16.4621 24.6466 11.48C24.6466 6.49798 19.631 2.45947 13.4436 2.45947Z" fill="url(#paint0_linear_61_237)"/>
<path d="M14.9599 13.8707H17.8592L18.3146 11.4992H14.9599V10.203C14.9599 9.2179 15.3598 8.34426 16.5042 8.34426H18.3432V6.27494C18.02 6.23976 17.3366 6.16309 16.0454 6.16309C13.3489 6.16309 11.7681 7.3096 11.7681 9.92196V11.4997H8.99597V13.8712H11.7676V20.3894C12.3165 20.4553 12.8728 20.5004 13.4436 20.5004C13.9595 20.5004 14.463 20.4625 14.9599 20.4084V13.8707Z" fill="white"/>
<defs>
<linearGradient id="paint0_linear_61_237" x1="5.59757" y1="5.16249" x2="19.091" y2="21.9205" gradientUnits="userSpaceOnUse">
<stop stop-color="#2AA4F4"/>
<stop offset="1" stop-color="#007AD9"/>
</linearGradient>
</defs>
</svg>
