<svg width="19" height="16" viewBox="0 0 19 16" fill="none" xmlns="http://www.w3.org/2000/svg">
<path d="M9.8 15.4936C9.7 15.4936 9.5 15.4936 9.4 15.3936C9 15.1936 1 10.6936 1 4.89361C1 3.79361 1.4 2.69361 2.1 1.79361C2.8 0.893608 3.8 0.293608 4.9 0.0936083C6.1 -0.106392 7.2 -0.00639164 8.2 0.593608C8.8 0.893608 9.3 1.39361 9.7 1.89361C10.1 1.39361 10.6 0.893608 11.2 0.593608C12.2 0.0936084 13.4 -0.106392 14.5 0.0936083C15.6 0.293608 16.6 0.893608 17.3 1.79361C18 2.69361 18.4 3.79361 18.4 4.89361C18.4 10.6936 10.4 15.1936 10 15.3936C10 15.4936 9.9 15.4936 9.8 15.4936ZM5.9 1.49361C5.7 1.49361 5.5 1.49361 5.2 1.59361C4.4 1.79361 3.7 2.19361 3.2 2.79361C2.8 3.29361 2.5 4.09361 2.5 4.89361C2.5 9.19361 8.2 12.9936 9.7 13.8936C11.2 12.9936 16.9 9.19361 16.9 4.89361C16.9 4.09361 16.6 3.39361 16.1 2.79361C15.6 2.19361 14.9 1.79361 14.1 1.59361C13.3 1.39361 12.5 1.59361 11.8 1.89361C11.1 2.29361 10.6 2.89361 10.3 3.59361C10.1 4.19361 9.2 4.19361 8.9 3.59361C8.8 2.89361 8.2 2.29361 7.5 1.89361C7 1.59361 6.5 1.49361 5.9 1.49361Z" fill="#FF0000"/>
</svg>
