<svg width="27" height="23" viewBox="0 0 27 23" fill="none" xmlns="http://www.w3.org/2000/svg">
<path d="M13.5138 2.71436C8.95235 2.71436 7.61829 2.71814 7.35898 2.73547C6.42289 2.79812 5.8404 2.91679 5.20581 3.1712C4.71676 3.36673 4.33106 3.59339 3.95041 3.91113C3.25717 4.49057 2.83702 5.20343 2.68492 6.05081C2.61098 6.46218 2.58947 6.54608 2.5851 8.64733C2.58342 9.34775 2.5851 10.2695 2.5851 11.506C2.5851 15.1758 2.59014 16.2489 2.61199 16.4573C2.68761 17.1908 2.83046 17.6522 3.13297 18.157C3.71109 19.1231 4.81524 19.8485 6.11602 20.1191C6.56641 20.2125 7.06387 20.2639 7.70249 20.2882C7.97307 20.2977 10.7309 20.3045 13.4904 20.3045C16.25 20.3045 19.0095 20.3018 19.2734 20.291C20.0128 20.2629 20.4422 20.2165 20.917 20.1177C22.2261 19.8457 23.3101 19.1313 23.9 18.1515C24.1966 17.659 24.347 17.1799 24.4151 16.4848C24.4299 16.3332 24.4361 13.9168 24.4361 11.5037C24.4361 9.0901 24.4294 6.67815 24.4146 6.52659C24.3457 5.82022 24.1953 5.34525 23.8891 4.84321C23.6378 4.43224 23.3589 4.12534 22.9538 3.81153C22.231 3.25564 21.347 2.91734 20.2936 2.79501C19.7832 2.7356 19.6816 2.71801 17.0699 2.71436H13.5138Z" fill="url(#paint0_radial_61_239)"/>
<path d="M13.5138 2.71436C8.95235 2.71436 7.61829 2.71814 7.35898 2.73547C6.42289 2.79812 5.8404 2.91679 5.20581 3.1712C4.71676 3.36673 4.33106 3.59339 3.95041 3.91113C3.25717 4.49057 2.83702 5.20343 2.68492 6.05081C2.61098 6.46218 2.58947 6.54608 2.5851 8.64733C2.58342 9.34775 2.5851 10.2695 2.5851 11.506C2.5851 15.1758 2.59014 16.2489 2.61199 16.4573C2.68761 17.1908 2.83046 17.6522 3.13297 18.157C3.71109 19.1231 4.81524 19.8485 6.11602 20.1191C6.56641 20.2125 7.06387 20.2639 7.70249 20.2882C7.97307 20.2977 10.7309 20.3045 13.4904 20.3045C16.25 20.3045 19.0095 20.3018 19.2734 20.291C20.0128 20.2629 20.4422 20.2165 20.917 20.1177C22.2261 19.8457 23.3101 19.1313 23.9 18.1515C24.1966 17.659 24.347 17.1799 24.4151 16.4848C24.4299 16.3332 24.4361 13.9168 24.4361 11.5037C24.4361 9.0901 24.4294 6.67815 24.4146 6.52659C24.3457 5.82022 24.1953 5.34525 23.8891 4.84321C23.6378 4.43224 23.3589 4.12534 22.9538 3.81153C22.231 3.25564 21.347 2.91734 20.2936 2.79501C19.7832 2.7356 19.6816 2.71801 17.0699 2.71436H13.5138Z" fill="url(#paint1_radial_61_239)"/>
<path d="M13.5085 5.01465C11.3177 5.01465 11.0428 5.02236 10.1823 5.05389C9.32354 5.08556 8.73735 5.19503 8.22443 5.35566C7.69387 5.52156 7.24381 5.74348 6.79543 6.10465C6.34671 6.46569 6.07109 6.82807 5.86438 7.25514C5.66439 7.66828 5.52826 8.14041 5.48961 8.83162C5.45112 9.52446 5.44104 9.74598 5.44104 11.51C5.44104 13.274 5.45079 13.4948 5.48978 14.1876C5.52927 14.8791 5.66523 15.3511 5.86455 15.7641C6.07076 16.1913 6.34637 16.5537 6.79492 16.9147C7.24314 17.276 7.6932 17.4985 8.22342 17.6644C8.73668 17.825 9.32303 17.9345 10.1816 17.9661C11.0421 17.9977 11.3169 18.0054 13.5075 18.0054C15.6985 18.0054 15.9726 17.9977 16.8331 17.9661C17.6919 17.9345 18.2787 17.825 18.792 17.6644C19.3224 17.4985 19.7718 17.276 20.22 16.9147C20.6687 16.5537 20.9443 16.1913 21.151 15.7642C21.3493 15.3511 21.4855 14.8789 21.5258 14.1877C21.5644 13.4949 21.5745 13.274 21.5745 11.51C21.5745 9.74598 21.5644 9.5246 21.5258 8.83176C21.4855 8.14027 21.3493 7.66828 21.151 7.25528C20.9443 6.82807 20.6687 6.46569 20.22 6.10465C19.7713 5.74335 19.3225 5.52142 18.7915 5.35566C18.2772 5.19503 17.6907 5.08556 16.8319 5.05389C15.9714 5.02236 15.6975 5.01465 13.506 5.01465H13.5085ZM12.7849 6.18517C12.9997 6.1849 13.2393 6.18517 13.5085 6.18517C15.6624 6.18517 15.9177 6.19139 16.7682 6.22252C17.5547 6.25147 17.9816 6.35729 18.266 6.4462C18.6424 6.56393 18.9108 6.70466 19.193 6.932C19.4753 7.15934 19.6501 7.37585 19.7966 7.67897C19.907 7.90766 20.0386 8.25137 20.0744 8.88467C20.1131 9.56939 20.1215 9.77507 20.1215 11.5085C20.1215 13.242 20.1131 13.4477 20.0744 14.1324C20.0385 14.7657 19.907 15.1094 19.7966 15.3381C19.6504 15.6412 19.4753 15.857 19.193 16.0842C18.9106 16.3116 18.6426 16.4523 18.266 16.57C17.9819 16.6593 17.5547 16.7649 16.7682 16.7939C15.9178 16.825 15.6624 16.8317 13.5085 16.8317C11.3545 16.8317 11.0992 16.825 10.2489 16.7939C9.46235 16.7646 9.03548 16.6588 8.75096 16.5699C8.37451 16.4522 8.10561 16.3114 7.82328 16.0841C7.54094 15.8568 7.36616 15.6408 7.21961 15.3375C7.10919 15.1089 6.9776 14.7651 6.94181 14.1318C6.90315 13.4471 6.89542 13.2414 6.89542 11.5069C6.89542 9.77237 6.90315 9.56776 6.94181 8.88304C6.97777 8.24975 7.10919 7.90603 7.21961 7.67707C7.36582 7.37395 7.54094 7.15744 7.82328 6.9301C8.10561 6.70277 8.37451 6.56203 8.75096 6.44403C9.03532 6.35472 9.46235 6.24917 10.2489 6.22008C10.993 6.19302 11.2814 6.1849 12.7849 6.18354V6.18517ZM17.8145 7.26367C17.2801 7.26367 16.8465 7.61239 16.8465 8.04284C16.8465 8.47316 17.2801 8.82229 17.8145 8.82229C18.349 8.82229 18.7826 8.47316 18.7826 8.04284C18.7826 7.61252 18.349 7.2634 17.8145 7.2634V7.26367ZM13.5085 8.17437C11.2208 8.17437 9.36589 9.6679 9.36589 11.51C9.36589 13.3521 11.2208 14.845 13.5085 14.845C15.7963 14.845 17.6505 13.3521 17.6505 11.51C17.6505 9.6679 15.7962 8.17437 13.5084 8.17437H13.5085ZM13.5085 9.34489C14.9935 9.34489 16.1975 10.3142 16.1975 11.51C16.1975 12.7057 14.9935 13.6751 13.5085 13.6751C12.0234 13.6751 10.8196 12.7057 10.8196 11.51C10.8196 10.3142 12.0234 9.34489 13.5085 9.34489Z" fill="white"/>
<defs>
<radialGradient id="paint0_radial_61_239" cx="0" cy="0" r="1" gradientUnits="userSpaceOnUse" gradientTransform="translate(8.38875 21.6593) rotate(-90) scale(17.4331 20.1425)">
<stop stop-color="#FFDD55"/>
<stop offset="0.1" stop-color="#FFDD55"/>
<stop offset="0.5" stop-color="#FF543E"/>
<stop offset="1" stop-color="#C837AB"/>
</radialGradient>
<radialGradient id="paint1_radial_61_239" cx="0" cy="0" r="1" gradientUnits="userSpaceOnUse" gradientTransform="translate(-1.07594 3.98152) rotate(76.0356) scale(7.8738 39.4929)">
<stop stop-color="#3771C8"/>
<stop offset="0.128" stop-color="#3771C8"/>
<stop offset="1" stop-color="#6600FF" stop-opacity="0"/>
</radialGradient>
</defs>
</svg>
