<svg width="19" height="17" viewBox="0 0 19 17" fill="none" xmlns="http://www.w3.org/2000/svg">
<path fill-rule="evenodd" clip-rule="evenodd" d="M0.668702 2.13375C0.668717 2.11741 0.669264 2.10107 0.670343 2.08474C0.676362 1.99334 0.698756 1.90641 0.734617 1.82686C0.770231 1.74786 0.819127 1.67614 0.878459 1.61454C0.943283 1.54711 1.01803 1.49431 1.09838 1.45642C1.19552 1.41047 1.30411 1.38477 1.4187 1.38477H1.41902H17.4184H17.4187C17.5308 1.38477 17.6371 1.40935 17.7326 1.45341C17.8209 1.49404 17.9027 1.55256 17.9722 1.62861C18.0942 1.76201 18.1687 1.93969 18.1687 2.13477V2.14001V13.4681C18.1687 13.8438 18.0194 14.2042 17.7538 14.4698C17.4881 14.7355 17.1278 14.8848 16.752 14.8848H2.08537C1.70965 14.8848 1.34931 14.7355 1.08363 14.4698C0.817957 14.2042 0.668701 13.8438 0.668701 13.4681V2.13477C0.668701 2.13443 0.668701 2.13409 0.668702 2.13375ZM2.1687 3.78759V13.3848H16.6687V3.78761L9.91259 9.69921C9.62982 9.94663 9.2076 9.94663 8.92483 9.69921L2.1687 3.78759ZM15.4226 2.88477H3.41479L9.41871 8.1382L15.4226 2.88477Z" fill="#618298"/>
</svg>
