<svg width="19" height="20" viewBox="0 0 19 20" fill="none" xmlns="http://www.w3.org/2000/svg">
<path fill-rule="evenodd" clip-rule="evenodd" d="M4.99647 3.45844C6.16795 2.29983 7.75856 1.64746 9.41882 1.64746C11.0791 1.64746 12.6697 2.29983 13.8412 3.45844C15.0124 4.61677 15.6688 6.18603 15.6688 7.82054C15.6688 10.663 14.0629 13.2585 12.3556 15.2003C11.5114 16.1604 10.6653 16.9347 10.03 17.4688C9.79212 17.6687 9.58461 17.8344 9.41882 17.9628C9.25304 17.8344 9.04553 17.6687 8.80769 17.4688C8.17237 16.9347 7.32623 16.1604 6.48207 15.2003C4.77476 13.2585 3.16882 10.663 3.16882 7.82054C3.16882 6.18603 3.82527 4.61677 4.99647 3.45844ZM8.99147 19.5138C8.99171 19.514 8.99192 19.5141 9.41882 18.8975L9.84573 19.5141C9.5889 19.6919 9.24831 19.6916 8.99147 19.5138ZM8.99147 19.5138L9.41882 18.8975C9.84573 19.5141 9.84654 19.5135 9.84678 19.5134L9.84846 19.5122L9.85373 19.5085L9.87174 19.4959C9.887 19.4851 9.90871 19.4696 9.93646 19.4496C9.99193 19.4095 10.0716 19.3512 10.1719 19.2754C10.3724 19.1238 10.6561 18.9021 10.9952 18.617C11.6724 18.0477 12.5762 17.221 13.4821 16.1908C15.2748 14.1518 17.1688 11.2089 17.1688 7.82054C17.1688 5.78282 16.3503 3.83026 14.896 2.39193C13.4419 0.953882 11.4716 0.147461 9.41882 0.147461C7.36605 0.147461 5.39571 0.953882 3.94168 2.39193C2.48738 3.83026 1.66882 5.78282 1.66882 7.82054C1.66882 11.2089 3.56288 14.1518 5.35557 16.1908C6.26142 17.221 7.16528 18.0477 7.84246 18.617C8.18158 18.9021 8.46525 19.1238 8.66579 19.2754C8.7661 19.3512 8.84571 19.4095 8.90119 19.4496C8.92893 19.4696 8.95065 19.4851 8.96591 19.4959L8.98391 19.5085L8.98918 19.5122L8.99147 19.5138ZM7.16882 7.89746C7.16882 6.65482 8.17618 5.64746 9.41882 5.64746C10.6615 5.64746 11.6688 6.65482 11.6688 7.89746C11.6688 9.1401 10.6615 10.1475 9.41882 10.1475C8.17618 10.1475 7.16882 9.1401 7.16882 7.89746ZM9.41882 4.14746C7.34776 4.14746 5.66882 5.82639 5.66882 7.89746C5.66882 9.96853 7.34776 11.6475 9.41882 11.6475C11.4899 11.6475 13.1688 9.96853 13.1688 7.89746C13.1688 5.82639 11.4899 4.14746 9.41882 4.14746Z" fill="#618298"/>
</svg>
