<svg width="19" height="19" viewBox="0 0 19 19" fill="none" xmlns="http://www.w3.org/2000/svg">
<path d="M13.0188 18.0161C9.61882 18.0161 6.51882 16.7161 4.11882 14.3161C1.71882 11.9161 0.418823 8.81611 0.418823 5.41611C0.418823 4.21611 0.818823 3.01611 1.61882 2.11611C2.41882 1.21611 3.51882 0.716113 4.71882 0.516113C5.01882 0.516113 5.31882 0.516113 5.61882 0.716113C5.91882 0.916113 6.11882 1.11611 6.21882 1.41611L8.01882 5.51611C8.11882 5.71611 8.11882 6.01611 8.11882 6.21611C8.11882 6.41611 8.01882 6.71611 7.91882 6.91611L6.41882 9.01611C7.01882 10.3161 8.11882 11.4161 9.41882 12.0161L11.5188 10.5161C11.7188 10.4161 11.9188 10.3161 12.2188 10.3161C12.4188 10.3161 12.7188 10.3161 12.9188 10.4161L17.0188 12.1161C17.3188 12.2161 17.5188 12.4161 17.7188 12.7161C17.9188 13.0161 17.9188 13.3161 17.9188 13.6161C17.7188 14.8161 17.2188 15.9161 16.3188 16.7161C15.4188 17.6161 14.2188 18.0161 13.0188 18.0161ZM4.81882 2.01611C4.11882 2.11611 3.31882 2.51611 2.81882 3.11611C2.21882 3.81611 1.91882 4.61611 1.91882 5.41611C1.91882 8.41611 3.11882 11.2161 5.11882 13.2161C7.11882 15.2161 10.0188 16.5161 13.0188 16.5161C13.8188 16.5161 14.6188 16.2161 15.3188 15.6161C15.9188 15.0161 16.3188 14.3161 16.4188 13.5161L12.4188 11.8161L10.3188 13.2161C10.0188 13.4161 9.81882 13.5161 9.51882 13.5161C9.21882 13.5161 9.01882 13.5161 8.81882 13.4161C7.21882 12.6161 5.81882 11.3161 5.01882 9.71611C4.91882 9.41611 4.91882 9.21611 4.91882 8.91611C4.91882 8.71611 5.01882 8.41611 5.11882 8.21611L6.51882 6.01611L4.81882 2.01611Z" fill="#618298"/>
</svg>
