<svg width="28" height="23" viewBox="0 0 28 23" fill="none" xmlns="http://www.w3.org/2000/svg">
<path d="M22.5596 7.88839C22.5728 8.04174 22.5728 8.19509 22.5728 8.34985C22.5728 13.0655 18.1143 18.5042 9.96177 18.5042V18.5014C7.55349 18.5042 5.19523 17.9487 3.16785 16.9014C3.51803 16.9353 3.86997 16.9523 4.22279 16.953C6.21858 16.9544 8.15731 16.4152 9.72744 15.4223C7.83083 15.3934 6.16767 14.3976 5.58666 12.944C6.25105 13.0472 6.93562 13.026 7.58772 12.8825C5.51996 12.5461 4.03234 11.0833 4.03234 9.38444V9.33921C4.64845 9.61552 5.33829 9.76887 6.04392 9.78583C4.09641 8.73782 3.49609 6.65169 4.67215 5.02067C6.92245 7.25025 10.2426 8.60567 13.8068 8.74913C13.4496 7.50961 13.9376 6.21072 15.089 5.33938C16.8742 3.98821 19.6818 4.05746 21.3599 5.49415C22.3525 5.33656 23.3039 5.04328 24.1745 4.62775C23.8436 5.45387 23.1512 6.1556 22.2261 6.60152C23.1047 6.51813 23.963 6.32874 24.7713 6.03971C24.1763 6.7577 23.4268 7.38311 22.5596 7.88839Z" fill="#1D9BF0"/>
</svg>
