<svg width="21" height="17" viewBox="0 0 21 17" fill="none" xmlns="http://www.w3.org/2000/svg">
<path fill-rule="evenodd" clip-rule="evenodd" d="M19.6895 3.41995L19.6955 3.44316C19.8955 4.24316 20.1955 5.84316 20.1955 8.54316C20.1955 11.1432 19.8955 12.7432 19.6955 13.6432C19.5955 13.9432 19.0955 14.7432 19.1955 14.5432C19.0955 14.7432 18.6955 15.0432 18.3955 15.1432C15.3955 16.3432 10.5955 16.3432 10.3955 16.3432H10.2955C9.69546 16.3432 5.19546 16.2432 2.39546 15.1432C2.09546 15.0432 1.7978 14.8455 1.49546 14.5432C1.29546 14.3432 1.19546 14.0432 1.09546 13.6432C0.895459 12.8432 0.595459 11.2432 0.595459 8.54316C0.595459 5.84316 0.895459 4.24316 1.09546 3.44316C1.26239 2.77543 1.70479 2.17727 2.35662 1.95622L2.39546 1.94316C5.39546 0.743164 10.1955 0.743164 10.3955 0.743164C10.5955 0.743164 15.3955 0.743164 18.3955 1.94316C19.0378 2.15729 19.5178 2.76496 19.6895 3.41995ZM18.1851 13.3744L18.1955 13.3432C18.3955 12.6432 18.5955 11.1432 18.3955 8.64316C18.3955 6.06562 18.2132 4.58169 18.0227 3.93038C18.0055 3.8719 17.9983 3.81192 17.9926 3.75125C17.992 3.74508 17.9913 3.73891 17.9905 3.73274C17.9719 3.59557 17.9039 3.4358 17.7833 3.36777C17.7499 3.34891 17.7131 3.33981 17.676 3.33065C17.6533 3.32505 17.6306 3.31942 17.6084 3.31153C14.8958 2.34316 10.2955 2.34316 10.2955 2.34316C10.0054 2.34316 5.79027 2.34316 3.16108 3.24663C2.98471 3.30723 2.82733 3.4113 2.69546 3.54316L2.69546 3.54316C2.60595 3.63267 2.58878 3.76388 2.572 3.89201C2.56862 3.91788 2.56525 3.94362 2.5613 3.96888C2.55608 4.00228 2.55063 4.03694 2.54498 4.07288C2.4196 4.87028 2.19546 6.2958 2.19546 8.54316C2.19546 11.0328 2.3938 12.5307 2.79048 13.3331C2.79379 13.3398 2.79536 13.347 2.79585 13.3545C2.79623 13.3604 2.7969 13.3665 2.79781 13.3729C2.80515 13.424 3.0382 13.8389 3.08968 13.8429C3.09341 13.8432 3.09717 13.8438 3.10068 13.8451C5.21919 14.628 8.56402 14.7968 9.90787 14.8332C10.3001 14.8438 10.6908 14.848 11.0831 14.8441C12.4281 14.8305 15.7773 14.7061 17.8955 13.8432C18.0531 13.7789 18.1153 13.5882 18.1698 13.421C18.1749 13.4052 18.18 13.3896 18.1851 13.3744ZM9.09543 4.84327C9.39543 4.74327 9.69543 4.74327 9.89543 4.94327L13.8954 7.94327C14.0954 8.04327 14.1954 8.34327 14.1954 8.54327C14.1954 8.74327 14.0954 9.04327 13.8954 9.14327L9.89543 12.1433C9.84184 12.1701 9.79543 12.1969 9.75236 12.2217C9.63466 12.2897 9.54184 12.3433 9.39543 12.3433C9.29543 12.3433 9.19543 12.3433 9.09543 12.2433C8.89543 12.0433 8.69543 11.8433 8.69543 11.5433V5.54327C8.69543 5.24327 8.79543 4.94327 9.09543 4.84327ZM10.1954 7.04327V10.0433L12.1954 8.54327L10.1954 7.04327Z" fill="#618298"/>
</svg>
